<mxfile host="Electron" agent="Mozilla/5.0 (Windows NT 10.0; Win64; x64) AppleWebKit/537.36 (KHTML, like Gecko) draw.io/27.0.9 Chrome/134.0.6998.205 Electron/35.4.0 Safari/537.36" version="27.0.9" pages="3">
  <diagram id="jh16XN638RhmD8JyI-mO" name="About">
    <mxGraphModel dx="1426" dy="849" grid="1" gridSize="10" guides="1" tooltips="1" connect="1" arrows="1" fold="1" page="1" pageScale="1" pageWidth="850" pageHeight="1100" math="0" shadow="0">
      <root>
        <mxCell id="0" />
        <mxCell id="1" parent="0" />
        <mxCell id="9SwEjt4HsC7w9wIcqSwM-1" value="Diagram Info" style="swimlane;fontStyle=0;childLayout=stackLayout;horizontal=1;startSize=30;horizontalStack=0;resizeParent=1;resizeParentMax=0;resizeLast=0;collapsible=1;marginBottom=0;whiteSpace=wrap;html=1;fontSize=19;fillColor=#d80073;fontColor=#ffffff;strokeColor=#A50040;" vertex="1" parent="1">
          <mxGeometry x="184" y="490" width="482" height="120" as="geometry" />
        </mxCell>
        <mxCell id="9SwEjt4HsC7w9wIcqSwM-2" value="&lt;b&gt;Creator:&lt;/b&gt; Joe Audet" style="text;strokeColor=none;fillColor=default;align=left;verticalAlign=middle;spacingLeft=4;spacingRight=4;overflow=hidden;points=[[0,0.5],[1,0.5]];portConstraint=eastwest;rotatable=0;whiteSpace=wrap;html=1;fontSize=14;" vertex="1" parent="9SwEjt4HsC7w9wIcqSwM-1">
          <mxGeometry y="30" width="482" height="30" as="geometry" />
        </mxCell>
        <mxCell id="9SwEjt4HsC7w9wIcqSwM-3" value="&lt;b&gt;Purpose:&lt;/b&gt; Illustrate Check Point Management API flow and components" style="text;strokeColor=none;fillColor=default;align=left;verticalAlign=middle;spacingLeft=4;spacingRight=4;overflow=hidden;points=[[0,0.5],[1,0.5]];portConstraint=eastwest;rotatable=0;whiteSpace=wrap;html=1;fontSize=14;" vertex="1" parent="9SwEjt4HsC7w9wIcqSwM-1">
          <mxGeometry y="60" width="482" height="30" as="geometry" />
        </mxCell>
        <mxCell id="9SwEjt4HsC7w9wIcqSwM-4" value="&lt;b&gt;Modified Date:&lt;/b&gt; 2025JUN12" style="text;strokeColor=none;fillColor=default;align=left;verticalAlign=middle;spacingLeft=4;spacingRight=4;overflow=hidden;points=[[0,0.5],[1,0.5]];portConstraint=eastwest;rotatable=0;whiteSpace=wrap;html=1;fontSize=14;" vertex="1" parent="9SwEjt4HsC7w9wIcqSwM-1">
          <mxGeometry y="90" width="482" height="30" as="geometry" />
        </mxCell>
      </root>
    </mxGraphModel>
  </diagram>
  <diagram name="API Flow" id="YynE_xHqkNvgsQC7AGAf">
    <mxGraphModel dx="1426" dy="849" grid="1" gridSize="10" guides="1" tooltips="1" connect="1" arrows="1" fold="1" page="1" pageScale="1" pageWidth="850" pageHeight="1100" math="0" shadow="0">
      <root>
        <mxCell id="0" />
        <mxCell id="1" parent="0" />
        <mxCell id="j737bGdzhL4TifnBIPsH-1" value="" style="edgeStyle=orthogonalEdgeStyle;rounded=0;orthogonalLoop=1;jettySize=auto;html=1;" edge="1" parent="1" source="j737bGdzhL4TifnBIPsH-2" target="j737bGdzhL4TifnBIPsH-5">
          <mxGeometry relative="1" as="geometry" />
        </mxCell>
        <mxCell id="j737bGdzhL4TifnBIPsH-2" value="Login" style="rounded=1;whiteSpace=wrap;html=1;" vertex="1" parent="1">
          <mxGeometry x="65" y="241" width="120" height="60" as="geometry" />
        </mxCell>
        <mxCell id="j737bGdzhL4TifnBIPsH-3" value="" style="endArrow=none;html=1;rounded=0;" edge="1" parent="1">
          <mxGeometry width="50" height="50" relative="1" as="geometry">
            <mxPoint x="45" y="400" as="sourcePoint" />
            <mxPoint x="805" y="400" as="targetPoint" />
          </mxGeometry>
        </mxCell>
        <mxCell id="j737bGdzhL4TifnBIPsH-4" value="" style="edgeStyle=orthogonalEdgeStyle;rounded=0;orthogonalLoop=1;jettySize=auto;html=1;" edge="1" parent="1" source="j737bGdzhL4TifnBIPsH-5" target="j737bGdzhL4TifnBIPsH-7">
          <mxGeometry relative="1" as="geometry" />
        </mxCell>
        <mxCell id="j737bGdzhL4TifnBIPsH-5" value="Collect Session ID" style="whiteSpace=wrap;html=1;rounded=1;" vertex="1" parent="1">
          <mxGeometry x="265" y="241" width="120" height="60" as="geometry" />
        </mxCell>
        <mxCell id="j737bGdzhL4TifnBIPsH-6" value="" style="edgeStyle=orthogonalEdgeStyle;rounded=0;orthogonalLoop=1;jettySize=auto;html=1;" edge="1" parent="1" source="j737bGdzhL4TifnBIPsH-7" target="j737bGdzhL4TifnBIPsH-8">
          <mxGeometry relative="1" as="geometry" />
        </mxCell>
        <mxCell id="j737bGdzhL4TifnBIPsH-7" value="Using session-id, make calls to read data" style="whiteSpace=wrap;html=1;rounded=1;" vertex="1" parent="1">
          <mxGeometry x="465" y="241" width="120" height="60" as="geometry" />
        </mxCell>
        <mxCell id="j737bGdzhL4TifnBIPsH-8" value="Logout" style="whiteSpace=wrap;html=1;rounded=1;" vertex="1" parent="1">
          <mxGeometry x="665" y="241" width="120" height="60" as="geometry" />
        </mxCell>
        <mxCell id="j737bGdzhL4TifnBIPsH-9" value="API - Read Only Flow" style="text;strokeColor=#6c8ebf;align=center;fillColor=#dae8fc;html=1;verticalAlign=middle;whiteSpace=wrap;rounded=1;fontSize=24;" vertex="1" parent="1">
          <mxGeometry x="295" y="160" width="260" height="40" as="geometry" />
        </mxCell>
        <mxCell id="j737bGdzhL4TifnBIPsH-10" value="API - Read / Write Flow" style="text;strokeColor=#b85450;align=center;fillColor=#f8cecc;html=1;verticalAlign=middle;whiteSpace=wrap;rounded=1;fontSize=24;" vertex="1" parent="1">
          <mxGeometry x="290" y="479" width="260" height="40" as="geometry" />
        </mxCell>
        <mxCell id="j737bGdzhL4TifnBIPsH-11" value="" style="edgeStyle=orthogonalEdgeStyle;rounded=0;orthogonalLoop=1;jettySize=auto;html=1;" edge="1" parent="1" source="j737bGdzhL4TifnBIPsH-12" target="j737bGdzhL4TifnBIPsH-14">
          <mxGeometry relative="1" as="geometry" />
        </mxCell>
        <mxCell id="j737bGdzhL4TifnBIPsH-12" value="Login" style="rounded=1;whiteSpace=wrap;html=1;" vertex="1" parent="1">
          <mxGeometry x="65" y="479" width="120" height="60" as="geometry" />
        </mxCell>
        <mxCell id="j737bGdzhL4TifnBIPsH-13" value="" style="edgeStyle=orthogonalEdgeStyle;rounded=0;orthogonalLoop=1;jettySize=auto;html=1;" edge="1" parent="1" source="j737bGdzhL4TifnBIPsH-14" target="j737bGdzhL4TifnBIPsH-16">
          <mxGeometry relative="1" as="geometry" />
        </mxCell>
        <mxCell id="j737bGdzhL4TifnBIPsH-14" value="Collect Session ID" style="whiteSpace=wrap;html=1;rounded=1;" vertex="1" parent="1">
          <mxGeometry x="65" y="619" width="120" height="60" as="geometry" />
        </mxCell>
        <mxCell id="j737bGdzhL4TifnBIPsH-15" value="" style="edgeStyle=orthogonalEdgeStyle;rounded=0;orthogonalLoop=1;jettySize=auto;html=1;" edge="1" parent="1" source="j737bGdzhL4TifnBIPsH-16" target="j737bGdzhL4TifnBIPsH-19">
          <mxGeometry relative="1" as="geometry" />
        </mxCell>
        <mxCell id="j737bGdzhL4TifnBIPsH-16" value="Using session-id, make calls to read and change data" style="whiteSpace=wrap;html=1;rounded=1;" vertex="1" parent="1">
          <mxGeometry x="265" y="619" width="120" height="60" as="geometry" />
        </mxCell>
        <mxCell id="j737bGdzhL4TifnBIPsH-17" value="Logout" style="whiteSpace=wrap;html=1;rounded=1;" vertex="1" parent="1">
          <mxGeometry x="665" y="479" width="120" height="60" as="geometry" />
        </mxCell>
        <mxCell id="j737bGdzhL4TifnBIPsH-18" value="" style="edgeStyle=orthogonalEdgeStyle;rounded=0;orthogonalLoop=1;jettySize=auto;html=1;" edge="1" parent="1" source="j737bGdzhL4TifnBIPsH-19" target="j737bGdzhL4TifnBIPsH-21">
          <mxGeometry relative="1" as="geometry" />
        </mxCell>
        <mxCell id="j737bGdzhL4TifnBIPsH-19" value="Publish" style="whiteSpace=wrap;html=1;rounded=1;" vertex="1" parent="1">
          <mxGeometry x="465" y="619" width="120" height="60" as="geometry" />
        </mxCell>
        <mxCell id="j737bGdzhL4TifnBIPsH-20" value="" style="edgeStyle=orthogonalEdgeStyle;rounded=0;orthogonalLoop=1;jettySize=auto;html=1;" edge="1" parent="1" source="j737bGdzhL4TifnBIPsH-21" target="j737bGdzhL4TifnBIPsH-17">
          <mxGeometry relative="1" as="geometry" />
        </mxCell>
        <mxCell id="j737bGdzhL4TifnBIPsH-21" value="&lt;div&gt;Install Policy&lt;/div&gt;&lt;div&gt;(Optional, but likely needed - can be done separately)&lt;/div&gt;" style="rounded=1;whiteSpace=wrap;html=1;" vertex="1" parent="1">
          <mxGeometry x="665" y="619" width="120" height="60" as="geometry" />
        </mxCell>
        <mxCell id="j737bGdzhL4TifnBIPsH-22" value="" style="endArrow=none;html=1;rounded=0;" edge="1" parent="1">
          <mxGeometry width="50" height="50" relative="1" as="geometry">
            <mxPoint x="45" y="740" as="sourcePoint" />
            <mxPoint x="805" y="740" as="targetPoint" />
          </mxGeometry>
        </mxCell>
        <mxCell id="j737bGdzhL4TifnBIPsH-23" value="API - Install Policy Only" style="text;strokeColor=#d79b00;align=center;fillColor=#ffe6cc;html=1;verticalAlign=middle;whiteSpace=wrap;rounded=1;fontSize=24;" vertex="1" parent="1">
          <mxGeometry x="295" y="840" width="260" height="40" as="geometry" />
        </mxCell>
        <mxCell id="j737bGdzhL4TifnBIPsH-24" value="" style="edgeStyle=orthogonalEdgeStyle;rounded=0;orthogonalLoop=1;jettySize=auto;html=1;" edge="1" parent="1" source="j737bGdzhL4TifnBIPsH-25" target="j737bGdzhL4TifnBIPsH-27">
          <mxGeometry relative="1" as="geometry" />
        </mxCell>
        <mxCell id="j737bGdzhL4TifnBIPsH-25" value="Login" style="rounded=1;whiteSpace=wrap;html=1;" vertex="1" parent="1">
          <mxGeometry x="70" y="840" width="120" height="60" as="geometry" />
        </mxCell>
        <mxCell id="j737bGdzhL4TifnBIPsH-26" value="" style="edgeStyle=orthogonalEdgeStyle;rounded=0;orthogonalLoop=1;jettySize=auto;html=1;" edge="1" parent="1" source="j737bGdzhL4TifnBIPsH-27" target="j737bGdzhL4TifnBIPsH-29">
          <mxGeometry relative="1" as="geometry" />
        </mxCell>
        <mxCell id="j737bGdzhL4TifnBIPsH-27" value="Collect Session ID" style="whiteSpace=wrap;html=1;rounded=1;" vertex="1" parent="1">
          <mxGeometry x="70" y="980" width="120" height="60" as="geometry" />
        </mxCell>
        <mxCell id="j737bGdzhL4TifnBIPsH-35" value="" style="edgeStyle=orthogonalEdgeStyle;rounded=0;orthogonalLoop=1;jettySize=auto;html=1;" edge="1" parent="1" source="j737bGdzhL4TifnBIPsH-29" target="j737bGdzhL4TifnBIPsH-34">
          <mxGeometry relative="1" as="geometry" />
        </mxCell>
        <mxCell id="j737bGdzhL4TifnBIPsH-29" value="Using session-id, make calls to read and change data" style="whiteSpace=wrap;html=1;rounded=1;" vertex="1" parent="1">
          <mxGeometry x="380" y="980" width="120" height="60" as="geometry" />
        </mxCell>
        <mxCell id="j737bGdzhL4TifnBIPsH-30" value="Logout" style="whiteSpace=wrap;html=1;rounded=1;" vertex="1" parent="1">
          <mxGeometry x="670" y="840" width="120" height="60" as="geometry" />
        </mxCell>
        <mxCell id="j737bGdzhL4TifnBIPsH-33" value="" style="edgeStyle=orthogonalEdgeStyle;rounded=0;orthogonalLoop=1;jettySize=auto;html=1;" edge="1" parent="1" source="j737bGdzhL4TifnBIPsH-34" target="j737bGdzhL4TifnBIPsH-30">
          <mxGeometry relative="1" as="geometry" />
        </mxCell>
        <mxCell id="j737bGdzhL4TifnBIPsH-34" value="&lt;div&gt;Install Policy&lt;/div&gt;&lt;div&gt;&lt;br&gt;&lt;/div&gt;" style="rounded=1;whiteSpace=wrap;html=1;" vertex="1" parent="1">
          <mxGeometry x="670" y="980" width="120" height="60" as="geometry" />
        </mxCell>
      </root>
    </mxGraphModel>
  </diagram>
  <diagram id="ylbhtVa89wXE3qiPmnmR" name="Policy Package - API calls">
    <mxGraphModel dx="2276" dy="849" grid="1" gridSize="10" guides="1" tooltips="1" connect="1" arrows="1" fold="1" page="1" pageScale="1" pageWidth="850" pageHeight="1100" math="0" shadow="0">
      <root>
        <mxCell id="0" />
        <mxCell id="1" parent="0" />
        <mxCell id="2RfBmvyG1pDI-WxkABdr-29" value="" style="rounded=1;whiteSpace=wrap;html=1;" parent="1" vertex="1">
          <mxGeometry x="680" y="20" width="160" height="340" as="geometry" />
        </mxCell>
        <mxCell id="oRMjpcU292e3ellbj58o-77" value="" style="edgeStyle=orthogonalEdgeStyle;rounded=0;orthogonalLoop=1;jettySize=auto;html=1;" parent="1" source="oRMjpcU292e3ellbj58o-74" target="oRMjpcU292e3ellbj58o-76" edge="1">
          <mxGeometry relative="1" as="geometry">
            <Array as="points">
              <mxPoint x="140" y="710" />
            </Array>
          </mxGeometry>
        </mxCell>
        <mxCell id="oRMjpcU292e3ellbj58o-80" value="" style="edgeStyle=orthogonalEdgeStyle;rounded=0;orthogonalLoop=1;jettySize=auto;html=1;" parent="1" source="oRMjpcU292e3ellbj58o-74" target="oRMjpcU292e3ellbj58o-79" edge="1">
          <mxGeometry relative="1" as="geometry">
            <Array as="points">
              <mxPoint x="140" y="500" />
            </Array>
          </mxGeometry>
        </mxCell>
        <mxCell id="oRMjpcU292e3ellbj58o-83" value="" style="edgeStyle=orthogonalEdgeStyle;rounded=0;orthogonalLoop=1;jettySize=auto;html=1;" parent="1" source="oRMjpcU292e3ellbj58o-74" target="oRMjpcU292e3ellbj58o-82" edge="1">
          <mxGeometry relative="1" as="geometry">
            <Array as="points">
              <mxPoint x="140" y="260" />
            </Array>
          </mxGeometry>
        </mxCell>
        <mxCell id="oRMjpcU292e3ellbj58o-85" value="" style="edgeStyle=orthogonalEdgeStyle;rounded=0;orthogonalLoop=1;jettySize=auto;html=1;" parent="1" source="oRMjpcU292e3ellbj58o-74" target="oRMjpcU292e3ellbj58o-84" edge="1">
          <mxGeometry relative="1" as="geometry">
            <Array as="points">
              <mxPoint x="140" y="320" />
            </Array>
          </mxGeometry>
        </mxCell>
        <mxCell id="oRMjpcU292e3ellbj58o-87" value="" style="edgeStyle=orthogonalEdgeStyle;rounded=0;orthogonalLoop=1;jettySize=auto;html=1;" parent="1" source="oRMjpcU292e3ellbj58o-74" target="oRMjpcU292e3ellbj58o-86" edge="1">
          <mxGeometry relative="1" as="geometry">
            <Array as="points">
              <mxPoint x="140" y="440" />
            </Array>
          </mxGeometry>
        </mxCell>
        <mxCell id="oRMjpcU292e3ellbj58o-89" value="" style="edgeStyle=orthogonalEdgeStyle;rounded=0;orthogonalLoop=1;jettySize=auto;html=1;" parent="1" source="oRMjpcU292e3ellbj58o-74" target="oRMjpcU292e3ellbj58o-88" edge="1">
          <mxGeometry relative="1" as="geometry">
            <Array as="points">
              <mxPoint x="140" y="380" />
            </Array>
          </mxGeometry>
        </mxCell>
        <mxCell id="oRMjpcU292e3ellbj58o-95" value="" style="edgeStyle=orthogonalEdgeStyle;rounded=0;orthogonalLoop=1;jettySize=auto;html=1;" parent="1" source="oRMjpcU292e3ellbj58o-74" target="oRMjpcU292e3ellbj58o-94" edge="1">
          <mxGeometry relative="1" as="geometry">
            <Array as="points">
              <mxPoint x="140" y="560" />
            </Array>
          </mxGeometry>
        </mxCell>
        <mxCell id="2RfBmvyG1pDI-WxkABdr-37" value="" style="edgeStyle=orthogonalEdgeStyle;rounded=0;orthogonalLoop=1;jettySize=auto;html=1;startArrow=classic;startFill=1;endArrow=none;" parent="1" source="oRMjpcU292e3ellbj58o-74" target="2RfBmvyG1pDI-WxkABdr-36" edge="1">
          <mxGeometry relative="1" as="geometry" />
        </mxCell>
        <mxCell id="oRMjpcU292e3ellbj58o-74" value="show-package" style="rounded=1;whiteSpace=wrap;html=1;fillColor=#dae8fc;strokeColor=#6c8ebf;" parent="1" vertex="1">
          <mxGeometry x="80" y="190" width="120" height="40" as="geometry" />
        </mxCell>
        <mxCell id="oRMjpcU292e3ellbj58o-91" value="" style="edgeStyle=orthogonalEdgeStyle;rounded=0;orthogonalLoop=1;jettySize=auto;html=1;" parent="1" source="oRMjpcU292e3ellbj58o-76" target="oRMjpcU292e3ellbj58o-90" edge="1">
          <mxGeometry relative="1" as="geometry">
            <Array as="points">
              <mxPoint x="280" y="760" />
            </Array>
          </mxGeometry>
        </mxCell>
        <mxCell id="oRMjpcU292e3ellbj58o-93" value="" style="edgeStyle=orthogonalEdgeStyle;rounded=0;orthogonalLoop=1;jettySize=auto;html=1;exitX=0.5;exitY=1;exitDx=0;exitDy=0;entryX=0;entryY=0.5;entryDx=0;entryDy=0;" parent="1" source="oRMjpcU292e3ellbj58o-76" target="oRMjpcU292e3ellbj58o-92" edge="1">
          <mxGeometry relative="1" as="geometry">
            <mxPoint x="610" y="730" as="sourcePoint" />
            <mxPoint x="710" y="760" as="targetPoint" />
            <Array as="points">
              <mxPoint x="280" y="810" />
            </Array>
          </mxGeometry>
        </mxCell>
        <mxCell id="2RfBmvyG1pDI-WxkABdr-3" value="" style="edgeStyle=orthogonalEdgeStyle;rounded=0;orthogonalLoop=1;jettySize=auto;html=1;" parent="1" source="oRMjpcU292e3ellbj58o-76" target="2RfBmvyG1pDI-WxkABdr-2" edge="1">
          <mxGeometry relative="1" as="geometry">
            <Array as="points">
              <mxPoint x="280" y="950" />
            </Array>
          </mxGeometry>
        </mxCell>
        <mxCell id="2RfBmvyG1pDI-WxkABdr-7" value="" style="edgeStyle=orthogonalEdgeStyle;rounded=0;orthogonalLoop=1;jettySize=auto;html=1;" parent="1" source="oRMjpcU292e3ellbj58o-76" target="2RfBmvyG1pDI-WxkABdr-6" edge="1">
          <mxGeometry relative="1" as="geometry">
            <Array as="points">
              <mxPoint x="280" y="1240" />
            </Array>
          </mxGeometry>
        </mxCell>
        <mxCell id="oRMjpcU292e3ellbj58o-76" value="access-layers&lt;div&gt;(list)&lt;/div&gt;" style="rounded=1;whiteSpace=wrap;html=1;fillStyle=auto;fillColor=#fff2cc;strokeColor=#d6b656;" parent="1" vertex="1">
          <mxGeometry x="220" y="690" width="120" height="40" as="geometry" />
        </mxCell>
        <mxCell id="oRMjpcU292e3ellbj58o-79" value="threat-layers" style="rounded=1;whiteSpace=wrap;html=1;fillStyle=auto;fillColor=#fff2cc;strokeColor=#d6b656;" parent="1" vertex="1">
          <mxGeometry x="220" y="480" width="120" height="40" as="geometry" />
        </mxCell>
        <mxCell id="oRMjpcU292e3ellbj58o-82" value="name&lt;div&gt;(string)&lt;/div&gt;" style="rounded=1;whiteSpace=wrap;html=1;fillStyle=auto;fillColor=#fff2cc;strokeColor=#d6b656;" parent="1" vertex="1">
          <mxGeometry x="220" y="240" width="120" height="40" as="geometry" />
        </mxCell>
        <mxCell id="oRMjpcU292e3ellbj58o-84" value="description&lt;div&gt;(string)&lt;/div&gt;" style="rounded=1;whiteSpace=wrap;html=1;fillStyle=auto;fillColor=#fff2cc;strokeColor=#d6b656;" parent="1" vertex="1">
          <mxGeometry x="220" y="300" width="120" height="40" as="geometry" />
        </mxCell>
        <mxCell id="oRMjpcU292e3ellbj58o-86" value="threat-enabled&lt;div&gt;(boolean)&lt;/div&gt;" style="rounded=1;whiteSpace=wrap;html=1;fillStyle=auto;fillColor=#fff2cc;strokeColor=#d6b656;" parent="1" vertex="1">
          <mxGeometry x="220" y="420" width="120" height="40" as="geometry" />
        </mxCell>
        <mxCell id="oRMjpcU292e3ellbj58o-88" value="uid&lt;div&gt;(string)&lt;/div&gt;" style="rounded=1;whiteSpace=wrap;html=1;fillStyle=auto;fillColor=#fff2cc;strokeColor=#d6b656;" parent="1" vertex="1">
          <mxGeometry x="220" y="360" width="120" height="40" as="geometry" />
        </mxCell>
        <mxCell id="oRMjpcU292e3ellbj58o-90" value="show-access-layer" style="rounded=1;whiteSpace=wrap;html=1;fillColor=#dae8fc;strokeColor=#6c8ebf;" parent="1" vertex="1">
          <mxGeometry x="380" y="740" width="120" height="40" as="geometry" />
        </mxCell>
        <mxCell id="oRMjpcU292e3ellbj58o-92" value="set-access-layer" style="rounded=1;whiteSpace=wrap;html=1;fillColor=#ffcd28;strokeColor=#d79b00;gradientColor=#ffa500;" parent="1" vertex="1">
          <mxGeometry x="380" y="790" width="120" height="40" as="geometry" />
        </mxCell>
        <mxCell id="oRMjpcU292e3ellbj58o-94" value="installation-targets&lt;div&gt;(string or list)&lt;/div&gt;" style="rounded=1;whiteSpace=wrap;html=1;fillStyle=auto;fillColor=#fff2cc;strokeColor=#d6b656;" parent="1" vertex="1">
          <mxGeometry x="220" y="540" width="120" height="40" as="geometry" />
        </mxCell>
        <mxCell id="2RfBmvyG1pDI-WxkABdr-1" value="access-layer: controls what features are enabled on a policy access-layer, such as Application Control or Content Awareness. Also the level where you specify if it is a &#39;SHARED&#39; or &#39;DYNAMIC&#39; layer." style="whiteSpace=wrap;html=1;shape=mxgraph.basic.rectCallout;dx=30;dy=15;boundedLbl=1;shadow=1;fillColor=#e1d5e7;strokeColor=#9673a6;" parent="1" vertex="1">
          <mxGeometry x="480" y="655" width="250" height="85" as="geometry" />
        </mxCell>
        <mxCell id="2RfBmvyG1pDI-WxkABdr-13" value="" style="edgeStyle=orthogonalEdgeStyle;rounded=0;orthogonalLoop=1;jettySize=auto;html=1;fillColor=#dae8fc;strokeColor=#6c8ebf;" parent="1" source="2RfBmvyG1pDI-WxkABdr-2" target="2RfBmvyG1pDI-WxkABdr-12" edge="1">
          <mxGeometry relative="1" as="geometry">
            <Array as="points">
              <mxPoint x="445" y="1000" />
            </Array>
          </mxGeometry>
        </mxCell>
        <mxCell id="2RfBmvyG1pDI-WxkABdr-15" value="" style="edgeStyle=orthogonalEdgeStyle;rounded=0;orthogonalLoop=1;jettySize=auto;html=1;fillColor=#dae8fc;strokeColor=#6c8ebf;" parent="1" source="2RfBmvyG1pDI-WxkABdr-2" target="2RfBmvyG1pDI-WxkABdr-14" edge="1">
          <mxGeometry relative="1" as="geometry">
            <Array as="points">
              <mxPoint x="445" y="1050" />
            </Array>
          </mxGeometry>
        </mxCell>
        <mxCell id="2RfBmvyG1pDI-WxkABdr-19" value="" style="edgeStyle=orthogonalEdgeStyle;rounded=0;orthogonalLoop=1;jettySize=auto;html=1;fillColor=#dae8fc;strokeColor=#6c8ebf;" parent="1" source="2RfBmvyG1pDI-WxkABdr-2" target="2RfBmvyG1pDI-WxkABdr-18" edge="1">
          <mxGeometry relative="1" as="geometry">
            <Array as="points">
              <mxPoint x="445" y="1100" />
            </Array>
          </mxGeometry>
        </mxCell>
        <mxCell id="2RfBmvyG1pDI-WxkABdr-21" value="" style="edgeStyle=orthogonalEdgeStyle;rounded=0;orthogonalLoop=1;jettySize=auto;html=1;fillColor=#dae8fc;strokeColor=#6c8ebf;" parent="1" source="2RfBmvyG1pDI-WxkABdr-2" target="2RfBmvyG1pDI-WxkABdr-20" edge="1">
          <mxGeometry relative="1" as="geometry">
            <Array as="points">
              <mxPoint x="445" y="1150" />
            </Array>
          </mxGeometry>
        </mxCell>
        <mxCell id="2RfBmvyG1pDI-WxkABdr-2" value="show-nat-rulebase" style="rounded=1;whiteSpace=wrap;html=1;fillColor=#dae8fc;strokeColor=#6c8ebf;" parent="1" vertex="1">
          <mxGeometry x="380" y="930" width="130" height="40" as="geometry" />
        </mxCell>
        <mxCell id="2RfBmvyG1pDI-WxkABdr-11" value="" style="edgeStyle=orthogonalEdgeStyle;rounded=0;orthogonalLoop=1;jettySize=auto;html=1;fillColor=#dae8fc;strokeColor=#6c8ebf;" parent="1" source="2RfBmvyG1pDI-WxkABdr-6" target="2RfBmvyG1pDI-WxkABdr-10" edge="1">
          <mxGeometry relative="1" as="geometry">
            <Array as="points">
              <mxPoint x="445" y="1310" />
            </Array>
          </mxGeometry>
        </mxCell>
        <mxCell id="2RfBmvyG1pDI-WxkABdr-17" value="" style="edgeStyle=orthogonalEdgeStyle;rounded=0;orthogonalLoop=1;jettySize=auto;html=1;fillColor=#dae8fc;strokeColor=#6c8ebf;" parent="1" source="2RfBmvyG1pDI-WxkABdr-6" target="2RfBmvyG1pDI-WxkABdr-16" edge="1">
          <mxGeometry relative="1" as="geometry">
            <Array as="points">
              <mxPoint x="445" y="1360" />
            </Array>
          </mxGeometry>
        </mxCell>
        <mxCell id="2RfBmvyG1pDI-WxkABdr-24" value="" style="edgeStyle=orthogonalEdgeStyle;rounded=0;orthogonalLoop=1;jettySize=auto;html=1;fillColor=#dae8fc;strokeColor=#6c8ebf;" parent="1" source="2RfBmvyG1pDI-WxkABdr-6" target="2RfBmvyG1pDI-WxkABdr-22" edge="1">
          <mxGeometry relative="1" as="geometry">
            <Array as="points">
              <mxPoint x="445" y="1410" />
            </Array>
          </mxGeometry>
        </mxCell>
        <mxCell id="2RfBmvyG1pDI-WxkABdr-26" value="" style="edgeStyle=orthogonalEdgeStyle;rounded=0;orthogonalLoop=1;jettySize=auto;html=1;fillColor=#dae8fc;strokeColor=#6c8ebf;" parent="1" source="2RfBmvyG1pDI-WxkABdr-6" target="2RfBmvyG1pDI-WxkABdr-25" edge="1">
          <mxGeometry relative="1" as="geometry">
            <Array as="points">
              <mxPoint x="445" y="1460" />
            </Array>
          </mxGeometry>
        </mxCell>
        <mxCell id="2RfBmvyG1pDI-WxkABdr-6" value="show-access-rulebase" style="rounded=1;whiteSpace=wrap;html=1;fillColor=#dae8fc;strokeColor=#6c8ebf;" parent="1" vertex="1">
          <mxGeometry x="380" y="1220" width="130" height="40" as="geometry" />
        </mxCell>
        <mxCell id="2RfBmvyG1pDI-WxkABdr-10" value="show-access-rule" style="rounded=1;whiteSpace=wrap;html=1;fillColor=#dae8fc;strokeColor=#6c8ebf;" parent="1" vertex="1">
          <mxGeometry x="540" y="1290" width="130" height="40" as="geometry" />
        </mxCell>
        <mxCell id="2RfBmvyG1pDI-WxkABdr-12" value="show-nat-rule" style="rounded=1;whiteSpace=wrap;html=1;fillColor=#dae8fc;strokeColor=#6c8ebf;" parent="1" vertex="1">
          <mxGeometry x="540" y="980" width="130" height="40" as="geometry" />
        </mxCell>
        <mxCell id="2RfBmvyG1pDI-WxkABdr-14" value="set-nat-rule" style="rounded=1;whiteSpace=wrap;html=1;fillColor=#ffcd28;strokeColor=#d79b00;gradientColor=#ffa500;" parent="1" vertex="1">
          <mxGeometry x="540" y="1030" width="130" height="40" as="geometry" />
        </mxCell>
        <mxCell id="2RfBmvyG1pDI-WxkABdr-16" value="set-access-rule" style="rounded=1;whiteSpace=wrap;html=1;fillColor=#ffcd28;strokeColor=#d79b00;gradientColor=#ffa500;" parent="1" vertex="1">
          <mxGeometry x="540" y="1340" width="130" height="40" as="geometry" />
        </mxCell>
        <mxCell id="2RfBmvyG1pDI-WxkABdr-18" value="add-nat-rule" style="rounded=1;whiteSpace=wrap;html=1;fillColor=#d5e8d4;strokeColor=#82b366;" parent="1" vertex="1">
          <mxGeometry x="540" y="1080" width="130" height="40" as="geometry" />
        </mxCell>
        <mxCell id="2RfBmvyG1pDI-WxkABdr-20" value="delete-nat-rule" style="rounded=1;whiteSpace=wrap;html=1;fillColor=#fad9d5;strokeColor=#ae4132;" parent="1" vertex="1">
          <mxGeometry x="540" y="1130" width="130" height="40" as="geometry" />
        </mxCell>
        <mxCell id="2RfBmvyG1pDI-WxkABdr-22" value="add-access-rule" style="rounded=1;whiteSpace=wrap;html=1;fillColor=#d5e8d4;strokeColor=#82b366;" parent="1" vertex="1">
          <mxGeometry x="540" y="1390" width="130" height="40" as="geometry" />
        </mxCell>
        <mxCell id="2RfBmvyG1pDI-WxkABdr-25" value="delete-access-rule" style="rounded=1;whiteSpace=wrap;html=1;fillColor=#fad9d5;strokeColor=#ae4132;" parent="1" vertex="1">
          <mxGeometry x="540" y="1440" width="130" height="40" as="geometry" />
        </mxCell>
        <mxCell id="2RfBmvyG1pDI-WxkABdr-27" value="show API call" style="rounded=1;whiteSpace=wrap;html=1;fillColor=#dae8fc;strokeColor=#6c8ebf;" parent="1" vertex="1">
          <mxGeometry x="700" y="90" width="120" height="40" as="geometry" />
        </mxCell>
        <mxCell id="2RfBmvyG1pDI-WxkABdr-28" value="Result Output" style="rounded=1;whiteSpace=wrap;html=1;fillStyle=auto;fillColor=#fff2cc;strokeColor=#d6b656;" parent="1" vertex="1">
          <mxGeometry x="700" y="140" width="120" height="40" as="geometry" />
        </mxCell>
        <mxCell id="2RfBmvyG1pDI-WxkABdr-30" value="Color Codes" style="text;strokeColor=none;align=center;fillColor=none;html=1;verticalAlign=middle;whiteSpace=wrap;rounded=0;fontSize=15;fontStyle=1" parent="1" vertex="1">
          <mxGeometry x="730" y="30" width="60" height="30" as="geometry" />
        </mxCell>
        <mxCell id="2RfBmvyG1pDI-WxkABdr-31" value="Modify API call" style="rounded=1;whiteSpace=wrap;html=1;fillColor=#ffcd28;strokeColor=#d79b00;gradientColor=#ffa500;" parent="1" vertex="1">
          <mxGeometry x="700" y="190" width="120" height="40" as="geometry" />
        </mxCell>
        <mxCell id="2RfBmvyG1pDI-WxkABdr-32" value="Add API call" style="rounded=1;whiteSpace=wrap;html=1;fillColor=#d5e8d4;strokeColor=#82b366;" parent="1" vertex="1">
          <mxGeometry x="700" y="240" width="120" height="40" as="geometry" />
        </mxCell>
        <mxCell id="2RfBmvyG1pDI-WxkABdr-33" value="Delete API call" style="rounded=1;whiteSpace=wrap;html=1;fillColor=#fad9d5;strokeColor=#ae4132;" parent="1" vertex="1">
          <mxGeometry x="700" y="290" width="120" height="40" as="geometry" />
        </mxCell>
        <mxCell id="2RfBmvyG1pDI-WxkABdr-34" value="This is a reference to help you follow the nested data structure of policy packages and learn some of the terms with the layout representing relational items for reference." style="text;strokeColor=#9673a6;align=center;fillColor=#e1d5e7;html=1;verticalAlign=middle;whiteSpace=wrap;rounded=1;glass=0;fontStyle=1;fontSize=14;" parent="1" vertex="1">
          <mxGeometry x="240" y="20" width="280" height="130" as="geometry" />
        </mxCell>
        <mxCell id="2RfBmvyG1pDI-WxkABdr-39" value="" style="edgeStyle=orthogonalEdgeStyle;rounded=0;orthogonalLoop=1;jettySize=auto;html=1;startArrow=classic;startFill=1;endArrow=none;" parent="1" source="2RfBmvyG1pDI-WxkABdr-36" target="2RfBmvyG1pDI-WxkABdr-38" edge="1">
          <mxGeometry relative="1" as="geometry">
            <Array as="points">
              <mxPoint x="-110" y="140" />
            </Array>
          </mxGeometry>
        </mxCell>
        <mxCell id="2RfBmvyG1pDI-WxkABdr-36" value="packages&lt;div&gt;(list)&lt;/div&gt;" style="rounded=1;whiteSpace=wrap;html=1;fillColor=#fff2cc;strokeColor=#d6b656;" parent="1" vertex="1">
          <mxGeometry x="-50" y="120" width="120" height="40" as="geometry" />
        </mxCell>
        <mxCell id="2RfBmvyG1pDI-WxkABdr-38" value="show-packages" style="rounded=1;whiteSpace=wrap;html=1;fillColor=#dae8fc;strokeColor=#6c8ebf;" parent="1" vertex="1">
          <mxGeometry x="-170" y="30" width="120" height="40" as="geometry" />
        </mxCell>
        <mxCell id="QfSRro4imLUuZj7U-t5i-1" value="access-rulebase: This is where you modify the actual access control rules within an access-layer. i.e.: Allow / Drop, etc" style="whiteSpace=wrap;html=1;shape=mxgraph.basic.rectCallout;dx=30;dy=15;boundedLbl=1;shadow=1;fillColor=#e1d5e7;strokeColor=#9673a6;" vertex="1" parent="1">
          <mxGeometry x="490" y="850" width="250" height="85" as="geometry" />
        </mxCell>
      </root>
    </mxGraphModel>
  </diagram>
</mxfile>
